<?xml version="1.0" standalone="no"?><!DOCTYPE svg PUBLIC "-//W3C//DTD SVG 1.1//EN" "http://www.w3.org/Graphics/SVG/1.1/DTD/svg11.dtd"><svg t="1494395241819" class="icon" style="" viewBox="0 0 1252 1024" version="1.1" xmlns="http://www.w3.org/2000/svg" p-id="3358" xmlns:xlink="http://www.w3.org/1999/xlink" width="58.6875" height="48"><defs><style type="text/css"></style></defs><path d="M1087.431111 912.896c75.548444-59.505778 123.050667-145.806222 123.050667-241.777778 0-179.598222-166.286222-325.176889-371.370667-325.176889S467.683556 491.52 467.683556 671.118222s166.286222 325.176889 371.370667 325.176889c59.335111 0 115.427556-12.174222 165.205333-33.848889l98.417778 55.296c2.446222 3.754667 6.712889 6.257778 11.491556 6.257778 7.623111 0 13.767111-6.200889 13.767111-13.824 0-2.901333-0.910222-5.632-2.446222-7.850667l2.787556-4.835556L1087.431111 912.896zM715.264 608.881778c-30.378667 0-55.011556-24.803556-55.011556-55.352889s24.632889-55.352889 55.011556-55.352889c30.378667 0 55.011556 24.803556 55.011556 55.352889S745.642667 608.881778 715.264 608.881778zM976.611556 608.881778c-30.378667 0-55.011556-24.803556-55.011556-55.352889s24.632889-55.352889 55.011556-55.352889c30.378667 0 55.011556 24.803556 55.011556 55.352889S1006.990222 608.881778 976.611556 608.881778z" p-id="3359" fill="#1296db"></path><path d="M839.054222 318.293333c7.338667 0 14.620444 0.170667 21.845333 0.512C827.335111 138.012444 648.647111 0 433.265778 0 193.991111 0 0 170.382222 0 380.529778c0 123.392 66.844444 233.016889 170.496 302.592l-41.528889 108.657778c-3.128889 2.56-5.176889 6.428444-5.176889 10.808889 0 7.623111 6.144 13.824 13.767111 13.824 4.437333 0 8.362667-2.104889 10.865778-5.347556l119.978667-78.506667c50.858667 18.375111 106.496 28.558222 164.920889 28.558222 6.656 0 13.255111-0.113778 19.854222-0.398222-8.476444-28.615111-12.970667-58.595556-12.970667-89.543111C440.149333 476.273778 618.780444 318.293333 839.054222 318.293333zM605.240889 207.587556c30.378667 0 55.011556 24.803556 55.011556 55.352889s-24.632889 55.352889-55.011556 55.352889c-30.378667 0-55.011556-24.803556-55.011556-55.352889S574.862222 207.587556 605.240889 207.587556zM275.114667 318.293333c-30.378667 0-55.011556-24.803556-55.011556-55.352889s24.632889-55.352889 55.011556-55.352889c30.378667 0 55.011556 24.803556 55.011556 55.352889S305.493333 318.293333 275.114667 318.293333z" p-id="3360" fill="#1296db"></path></svg>