<?xml version="1.0" standalone="no"?><!DOCTYPE svg PUBLIC "-//W3C//DTD SVG 1.1//EN" "http://www.w3.org/Graphics/SVG/1.1/DTD/svg11.dtd"><svg t="1494395502529" class="icon" style="" viewBox="0 0 1024 1024" version="1.1" xmlns="http://www.w3.org/2000/svg" p-id="4253" xmlns:xlink="http://www.w3.org/1999/xlink" width="48" height="48"><defs><style type="text/css"></style></defs><path d="M579.790129 511.865018c-11.668473 0-23.341945 10.835582-23.341945 24.174836 0 10.838582 11.667473 21.675164 23.341945 21.675164 17.511708 0 30.016072-10.837582 30.016072-21.675164 0-13.338255-12.504364-24.174836-30.016072-24.174836zM503.088166 399.307747c18.3416 0 30.016072-11.668473 30.016072-29.181182 0-18.3426-11.673472-29.179182-30.016072-29.179181-17.507709 0-34.184527 10.837582-34.184526 29.179181 0 17.514708 16.675818 29.181181 34.184526 29.181182zM512.258966 0.559927C229.639949 0.559927 0.53793 229.662946 0.53793 512.280963c0 282.616017 229.10302 511.719037 511.721036 511.719037 282.615017 0 511.719037-229.10302 511.719037-511.719037C1023.978003 229.662946 794.874983 0.559927 512.258966 0.559927z m-96.711344 641.364071c-30.851963 0-53.363017-4.999346-82.542199-13.338254l-84.206981 42.524435 24.182836-71.706617c-59.196254-41.682545-94.216671-94.207672-94.216671-158.40727 0-113.388162 106.719035-200.096815 236.784015-200.096816 115.053944 0 217.603525 68.367054 237.611906 165.083397-8.335909-1.671781-15.841927-2.500673-22.510055-2.500672-113.388162 0-200.927707 85.038872-200.927706 187.588452 0 17.505709 2.501673 33.345636 6.670127 50.023454-6.670127 0.829891-14.176145 0.829891-20.845272 0.829891z m347.667504 81.705308l16.671818 60.032145-63.362708-35.849309c-24.176836 4.999346-47.523781 12.503364-71.699617 12.503364-111.72238 0-200.096815-76.701963-200.096816-171.746526 0-95.045562 88.375435-171.747525 200.096816-171.747525 105.882144 0 200.927707 76.701963 200.927706 171.747525 0 53.355018-35.849309 100.877799-82.537199 135.060326zM338.008768 340.947384c-17.507709 0-35.849309 10.837582-35.849308 29.179181 0 17.512708 18.3416 29.186181 35.849308 29.186181 16.676818 0 30.016072-11.673472 30.016072-29.186181 0-18.3416-13.339254-29.179182-30.016072-29.179181z m372.681232 170.917634c-12.508363 0-23.346945 10.835582-23.346945 24.174836 0 10.838582 10.838582 21.675164 23.346945 21.675164 16.671818 0 29.179182-10.837582 29.179181-21.675164 0-13.338255-12.508363-24.174836-29.179181-24.174836z m0 0" p-id="4254" fill="#8a8a8a"></path></svg>